<?xml version="1.0" encoding="UTF-8" standalone="no"?>
<svg
   xmlns:dc="http://purl.org/dc/elements/1.1/"
   xmlns:cc="http://creativecommons.org/ns#"
   xmlns:rdf="http://www.w3.org/1999/02/22-rdf-syntax-ns#"
   xmlns:svg="http://www.w3.org/2000/svg"
   xmlns="http://www.w3.org/2000/svg"
   xmlns:sodipodi="http://sodipodi.sourceforge.net/DTD/sodipodi-0.dtd"
   xmlns:inkscape="http://www.inkscape.org/namespaces/inkscape"
   version="1.1"
   x="0px"
   y="0px"
   width="3200"
   height="533.42761"
   viewBox="0 0 3000 500.08838"
   xml:space="preserve"
   id="svg2"
   inkscape:version="0.92.5 (2060ec1f9f, 2020-04-08)"
   sodipodi:docname="Chanel_logo.svg"><metadata
   id="metadata22"><rdf:RDF><cc:Work
       rdf:about=""><dc:format>image/svg+xml</dc:format><dc:type
         rdf:resource="http://purl.org/dc/dcmitype/StillImage" /><dc:title /></cc:Work></rdf:RDF></metadata><defs
   id="defs20" /><sodipodi:namedview
   pagecolor="#ffffff"
   bordercolor="#666666"
   borderopacity="1"
   objecttolerance="10"
   gridtolerance="10"
   guidetolerance="10"
   inkscape:pageopacity="0"
   inkscape:pageshadow="2"
   inkscape:window-width="1920"
   inkscape:window-height="995"
   id="namedview18"
   showgrid="false"
   fit-margin-top="20"
   fit-margin-right="20"
   fit-margin-bottom="20"
   fit-margin-left="20"
   inkscape:zoom="0.37266667"
   inkscape:cx="1500"
   inkscape:cy="250.04419"
   inkscape:window-x="0"
   inkscape:window-y="48"
   inkscape:window-maximized="1"
   inkscape:current-layer="svg2" />
<style
   type="text/css"
   id="style4">
<![CDATA[
	.st0{fill:#1D1D1B;}
]]>
</style>
<path
   d="M 248.17768,20 C 123.14728,20 20,115.63482 20,250.04419 c 0,134.40092 103.14728,230.0442 228.17768,230.0442 85.64549,0 161.28868,-46.23123 200.04777,-117.50804 l -77.51831,-44.38348 c -22.50445,46.25212 -68.14157,74.37991 -122.52946,74.37991 -78.144,0 -137.52768,-58.13876 -137.52768,-142.53259 0,-84.39383 59.38368,-142.53259 137.52768,-142.53259 54.38789,0 100.02501,28.13586 122.52946,74.39643 l 77.51831,-44.38348 C 409.46636,66.26466 333.82317,20 248.17768,20 Z M 557.60669,31.24866 V 468.8232 h 87.52813 V 281.29597 h 218.79553 v 187.54376 h 87.51162 V 31.24866 H 863.93035 V 193.78437 H 645.13482 V 31.24866 Z m 675.15091,0 -193.804,437.59107 h 95.6549 l 43.1281,-100.01563 h 228.7889 l 43.1446,100.01563 h 95.6384 L 1351.5375,31.24866 Z m 400.079,0 v 437.59107 h 81.2513 V 124.39285 l 234.438,344.44688 h 78.146 V 31.24866 h -81.2678 V 321.31874 L 1748.4946,31.24866 Z m 562.5982,0 v 437.59107 l 325.088,0.0169 V 387.58877 H 2276.7026 V 287.57314 h 200.0478 v -81.28437 h -200.0478 v -93.77188 h 231.2996 V 31.24904 h -312.5674 z m 465.7375,0 v 437.59107 0.0169 H 2980 V 381.34502 H 2748.7004 V 31.24904 h -87.5281 z m -1369.033,71.88571 79.4014,184.42188 h -158.8028 z"
   id="path6"
   inkscape:connector-curvature="0"
   style="fill:#ffffff" />





</svg>